<svg width="81" height="81" viewBox="0 0 81 81" fill="none" xmlns="http://www.w3.org/2000/svg">
<g clip-path="url(#clip0_301_18)">
<path fill-rule="evenodd" clip-rule="evenodd" d="M17.331 7.16663C12.7643 7.16663 9.38763 11.1633 9.54096 15.4933C9.68429 19.66 9.49763 25.05 8.14096 29.4466C6.77429 33.8533 4.47429 36.6466 0.714294 37.0066V41.0566C4.47429 41.4133 6.77763 44.2066 8.13763 48.6166C9.49763 53.0133 9.68429 58.4033 9.53763 62.5666C9.38763 66.9 12.7643 70.8966 17.331 70.8966H64.1043C68.671 70.8966 72.0476 66.9 71.8943 62.5666C71.751 58.4033 71.9376 53.0133 73.2943 48.6166C74.6576 44.2066 76.9543 41.4166 80.7143 41.0566V37.0066C76.9543 36.6466 74.6576 33.8533 73.2943 29.4466C71.9376 25.0466 71.751 19.6566 71.8943 15.4933C72.0476 11.16 68.6676 7.16663 64.1043 7.16663H17.331ZM54.9476 46.3966C54.9476 52.3633 50.4976 55.98 43.1143 55.98H30.5443C30.1845 55.98 29.8394 55.837 29.585 55.5826C29.3306 55.3282 29.1876 54.9831 29.1876 54.6233V23.4366C29.1885 23.0774 29.3318 22.7332 29.5862 22.4795C29.8405 22.2258 30.1851 22.0833 30.5443 22.0833H43.0443C49.201 22.0833 53.2443 25.4166 53.2443 30.54C53.2443 34.1333 50.5243 37.35 47.061 37.9166V38.1033C51.7776 38.62 54.951 41.8866 54.951 46.3966H54.9476ZM41.7476 26.38H34.581V36.5066H40.6176C45.2843 36.5066 47.8576 34.6266 47.8576 31.2666C47.8576 28.12 45.6443 26.38 41.7476 26.38ZM34.581 40.5233V51.68H42.0143C46.871 51.68 49.4476 49.73 49.4476 46.0666C49.4476 42.4 46.801 40.5233 41.701 40.5233H34.581V40.5233Z" fill="#959595"/>
</g>
<defs>
<clipPath id="clip0_301_18">
<rect width="80" height="80" fill="white" transform="translate(0.714294 0.5)"/>
</clipPath>
</defs>
</svg>
