<svg width="81" height="81" viewBox="0 0 81 81" fill="none" xmlns="http://www.w3.org/2000/svg">
<g clip-path="url(#clip0_301_15)">
<path d="M25.8638 0.5H34.4571V4.09333H29.4571V7.68667H34.4571V11.28H25.8638V0.5ZM36.1738 0.5H44.7705V3.62667H39.7705V4.25H44.7705V11.4367H36.1738V8.15667H41.1738V7.53H36.1738V0.5ZM46.4905 0.5H55.0805V3.62667H50.0805V4.25H55.0805V11.4367H46.4905V8.15667H51.4905V7.53H46.4905V0.5Z" fill="#959595"/>
<path fill-rule="evenodd" clip-rule="evenodd" d="M40.8271 80.5001L17.6805 74.0734L10.8571 16.2234H70.8571L64.0371 74.0667L40.8271 80.5001ZM24.3471 42.4101L24.9838 49.5034H49.5738L48.7505 58.7034L40.8371 60.8434H40.8305L32.9305 58.7101L32.4238 53.0534H25.3005L26.2938 64.1934L40.8271 68.2267L55.3838 64.1934L57.1571 44.3134L57.3305 42.4101L58.6105 28.0467H23.0705L23.7171 35.1434H50.8371L50.1905 42.4101H24.3471V42.4101Z" fill="#959595"/>
</g>
<defs>
<clipPath id="clip0_301_15">
<rect width="80" height="80" fill="white" transform="translate(0.857147 0.5)"/>
</clipPath>
</defs>
</svg>
