<svg width="81" height="81" viewBox="0 0 81 81" fill="none" xmlns="http://www.w3.org/2000/svg">
<g clip-path="url(#clip0_301_27)">
<path d="M78.7757 36.935L43.8457 2.01003C43.3675 1.53154 42.7996 1.15197 42.1746 0.892996C41.5496 0.634026 40.8797 0.500732 40.2032 0.500732C39.5267 0.500732 38.8568 0.634026 38.2318 0.892996C37.6068 1.15197 37.039 1.53154 36.5607 2.01003L29.3107 9.26003L38.5107 18.46C39.5957 18.0896 40.763 18.0316 41.8794 18.2928C42.9958 18.5539 44.0163 19.1237 44.8244 19.937C45.6325 20.7503 46.1957 21.7744 46.4496 22.8925C46.7036 24.0105 46.6381 25.1774 46.2607 26.26L55.1257 35.13C56.4373 34.6682 57.867 34.6668 59.1795 35.1261C60.4919 35.5853 61.6089 36.4778 62.3464 37.6565C63.0839 38.8353 63.3981 40.2301 63.2371 41.6112C63.0761 42.9924 62.4496 44.2775 61.4607 45.255C60.4596 46.2623 59.1399 46.8907 57.727 47.0329C56.314 47.1752 54.8955 46.8225 53.7138 46.035C52.532 45.2476 51.6603 44.0742 51.2475 42.7155C50.8348 41.3567 50.9066 39.8967 51.4507 38.585L43.1857 30.315V52.08C44.442 52.7019 45.4472 53.7355 46.0338 55.0087C46.6204 56.2818 46.7529 57.7176 46.4092 59.0766C46.0656 60.4356 45.2666 61.6357 44.1453 62.477C43.0241 63.3183 41.6484 63.7499 40.2475 63.6999C38.8466 63.6499 37.5052 63.1212 36.4468 62.2021C35.3885 61.2829 34.6771 60.0288 34.4313 58.6488C34.1855 57.2687 34.4201 55.8461 35.096 54.618C35.7719 53.39 36.8483 52.4307 38.1457 51.9V29.935C37.3972 29.6283 36.7167 29.1764 36.1436 28.6055C35.5705 28.0346 35.1161 27.3558 34.8065 26.6084C34.497 25.8611 34.3384 25.0598 34.34 24.2508C34.3416 23.4419 34.5032 22.6412 34.8157 21.895L25.7507 12.825L1.80071 36.775C1.32222 37.2533 0.942647 37.8211 0.683676 38.4461C0.424705 39.0711 0.291412 39.741 0.291412 40.4175C0.291412 41.0941 0.424705 41.7639 0.683676 42.3889C0.942647 43.0139 1.32222 43.5818 1.80071 44.06L36.7307 78.99C37.209 79.4685 37.7768 79.8481 38.4018 80.1071C39.0268 80.366 39.6967 80.4993 40.3732 80.4993C41.0497 80.4993 41.7196 80.366 42.3446 80.1071C42.9696 79.8481 43.5375 79.4685 44.0157 78.99L78.7807 44.225C79.7459 43.2585 80.2879 41.9484 80.2879 40.5825C80.2879 39.2166 79.7459 37.9066 78.7807 36.94" fill="#959595"/>
</g>
<defs>
<clipPath id="clip0_301_27">
<rect width="80" height="80" fill="white" transform="translate(0.285706 0.5)"/>
</clipPath>
</defs>
</svg>
