<svg width="80" height="81" viewBox="0 0 80 81" fill="none" xmlns="http://www.w3.org/2000/svg">
<g clip-path="url(#clip0_301_10)">
<path d="M16.9333 0.5H20.54V4.06333H23.84V0.5H27.4467V11.2867H23.84V7.67667H20.54V11.2867H16.9367V0.5H16.9333ZM32.1867 4.07667H29.0133V0.5H38.97V4.07667H35.7933V11.2867H32.1867V4.07667V4.07667ZM40.55 0.5H44.31L46.6233 4.29L48.9333 0.5H52.6933V11.2867H49.1033V5.94L46.6233 9.77667H46.56L44.0767 5.94333V11.2867H40.55V0.5V0.5ZM54.4867 0.5H58.0967V7.72333H63.1633V11.29H54.4867V0.5V0.5Z" fill="#959595"/>
<path fill-rule="evenodd" clip-rule="evenodd" d="M16.82 74.0734L10 16.2234H70L63.1767 74.0667L39.9667 80.5001L16.82 74.0734ZM30.61 42.4067L29.9633 35.1401H57.1133L57.7467 28.0467H22.2133L24.1267 49.5034H48.7167L47.8933 58.7034L39.98 60.8434H39.9733L32.0733 58.7101L31.5667 53.0534H24.44L25.4333 64.1934L39.9667 68.2267L54.5233 64.1934L56.2967 44.3134L56.47 42.4101H30.61V42.4067Z" fill="#959595"/>
</g>
<defs>
<clipPath id="clip0_301_10">
<rect width="80" height="80" fill="white" transform="translate(0 0.5)"/>
</clipPath>
</defs>
</svg>
