<svg width="81" height="93" viewBox="0 0 81 93" fill="none" xmlns="http://www.w3.org/2000/svg">
<g clip-path="url(#clip0_301_20)">
<path d="M0.571442 6.5V86.5H80.5714V6.5H0.571442ZM44.1072 68.8929C44.1072 76.6786 39.5357 80.2321 32.875 80.2321C26.8572 80.2321 23.375 77.125 21.5893 73.3571L27.7143 69.6607C28.8929 71.75 29.9643 73.5179 32.5536 73.5179C35.0179 73.5179 36.5893 72.5536 36.5893 68.7857V43.2321H44.1072V68.8929V68.8929ZM61.8929 80.2321C54.9107 80.2321 50.3929 76.9107 48.1964 72.5536L54.3214 69.0179C55.9286 71.6429 58.0357 73.5893 61.7322 73.5893C64.8393 73.5893 66.8393 72.0357 66.8393 69.875C66.8393 67.3036 64.8036 66.3929 61.3572 64.875L59.4822 64.0714C54.0536 61.7679 50.4643 58.8571 50.4643 52.7321C50.4643 47.0893 54.7679 42.8036 61.4643 42.8036C66.25 42.8036 69.6786 44.4643 72.1429 48.8214L66.2857 52.5714C65 50.2679 63.6072 49.3571 61.4464 49.3571C59.25 49.3571 57.8572 50.75 57.8572 52.5714C57.8572 54.8214 59.25 55.7321 62.4822 57.1429L64.3572 57.9464C70.75 60.6786 74.3393 63.4821 74.3393 69.7679C74.3393 76.5179 69.0179 80.2321 61.8929 80.2321V80.2321Z" fill="#959595"/>
</g>
<defs>
<clipPath id="clip0_301_20">
<rect width="80" height="91.4286" fill="white" transform="translate(0.571442 0.785767)"/>
</clipPath>
</defs>
</svg>
