<svg width="81" height="81" viewBox="0 0 81 81" fill="none" xmlns="http://www.w3.org/2000/svg">
<g clip-path="url(#clip0_301_29)">
<path d="M59.5153 75.5125C59.2178 75.67 59.2428 75.72 59.5278 75.575C59.6157 75.5392 59.6962 75.4875 59.7653 75.4225C59.7653 75.37 59.7653 75.37 59.5153 75.5125V75.5125ZM60.1153 75.1875C59.9728 75.305 59.9728 75.305 60.1428 75.2275C60.2056 75.1981 60.2631 75.1584 60.3128 75.11C60.3128 75.0425 60.2728 75.0575 60.1153 75.1875V75.1875ZM60.5053 74.9525C60.3628 75.07 60.3628 75.07 60.5328 74.9925C60.5959 74.9625 60.6534 74.9219 60.7028 74.8725C60.7028 74.81 60.6628 74.8225 60.5053 74.9525ZM60.9003 74.72C60.7578 74.8375 60.7578 74.8375 60.9228 74.7575C61.0153 74.7075 61.0928 74.655 61.0928 74.64C61.0928 74.5775 61.0528 74.59 60.9003 74.72ZM61.4328 74.3675C61.1603 74.55 61.0653 74.6675 61.3153 74.5375C61.4828 74.435 61.7678 74.21 61.7178 74.21C61.6103 74.25 61.5203 74.3175 61.4303 74.3675H61.4328ZM37.5253 0.52753C37.3428 0.54003 36.7953 0.59003 36.3153 0.63003C24.9453 1.66003 14.3078 7.78003 7.56532 17.2075C3.83923 22.3782 1.41722 28.3723 0.505322 34.68C0.182822 36.88 0.142822 37.53 0.142822 40.5125C0.142822 43.4925 0.182822 44.1325 0.505322 46.3325C2.68282 61.36 13.3728 73.975 27.8628 78.65C30.4703 79.4825 33.2028 80.0575 36.3153 80.41C37.5253 80.54 42.7578 80.54 43.9678 80.41C49.3478 79.81 53.8903 78.4825 58.3853 76.19C59.0753 75.84 59.2053 75.7475 59.1128 75.67C56.92 72.7715 54.7458 69.8589 52.5903 66.9325L46.1978 58.3L38.1903 46.4375C35.5268 42.4657 32.8359 38.5123 30.1178 34.5775C30.0903 34.5775 30.0553 39.85 30.0403 46.28C30.0128 57.5425 30.0128 58 29.8703 58.26C29.7337 58.5741 29.4888 58.8287 29.1803 58.9775C28.9328 59.095 28.7103 59.12 27.5278 59.12H26.1753L25.8228 58.9C25.602 58.7584 25.4226 58.5609 25.3028 58.3275L25.1328 57.975L25.1453 42.2975L25.1728 26.62L25.4203 26.3075C25.5784 26.1154 25.773 25.9565 25.9928 25.84C26.3203 25.6825 26.4503 25.6575 27.8028 25.6575C29.3903 25.6575 29.6528 25.72 30.0703 26.1775C33.3142 31.0022 36.53 35.8456 39.7178 40.7075C44.9153 48.5875 52.0103 59.34 55.4978 64.615L61.8403 74.2125L62.1528 74.005C65.2009 71.9794 67.9631 69.5536 70.3653 66.7925C75.4042 61.0252 78.6739 53.9278 79.7828 46.35C80.1053 44.15 80.1453 43.4975 80.1453 40.5175C80.1453 37.535 80.1053 36.8975 79.7828 34.6975C77.6053 19.67 66.9153 7.05503 52.4253 2.37753C49.7173 1.51983 46.93 0.936074 44.1053 0.63503C43.3478 0.55753 38.1778 0.46503 37.5278 0.53253L37.5253 0.52753ZM53.8928 24.72C54.0788 24.8114 54.2447 24.9389 54.3808 25.0952C54.5169 25.2514 54.6204 25.4333 54.6853 25.63C54.7528 25.84 54.7653 30.1875 54.7528 39.98L54.7253 54.04L52.2528 50.24L49.7653 46.4375V36.23C49.7653 29.6125 49.7928 25.9025 49.8278 25.72C49.9502 25.3016 50.2309 24.9473 50.6103 24.7325C50.9203 24.575 51.0403 24.5625 52.2778 24.5625C53.4353 24.5625 53.6303 24.575 53.8903 24.72H53.8928Z" fill="#959595"/>
</g>
<defs>
<clipPath id="clip0_301_29">
<rect width="80" height="80" fill="white" transform="translate(0.142822 0.5)"/>
</clipPath>
</defs>
</svg>
