<svg width="81" height="81" viewBox="0 0 81 81" fill="none" xmlns="http://www.w3.org/2000/svg">
<g clip-path="url(#clip0_301_22)">
<path d="M80.4286 39.4634C80.4286 34.1634 73.7919 29.14 63.6153 26.0267C65.9653 15.6567 64.9219 7.40337 60.3219 4.76004C59.2073 4.13578 57.9458 3.82155 56.6686 3.85004V7.48337C57.4186 7.48337 58.0219 7.63337 58.5286 7.91004C60.7453 9.18337 61.7086 14.0234 60.9586 20.2534C60.7786 21.7867 60.4853 23.4 60.1253 25.0467C56.7174 24.2255 53.2586 23.632 49.7719 23.27C47.6948 20.4043 45.4286 17.6805 42.9886 15.1167C48.3053 10.1767 53.2953 7.47004 56.6886 7.47004V3.83337C52.2019 3.83337 46.3319 7.03004 40.3953 12.5734C34.4619 7.06671 28.5886 3.90004 24.1053 3.90004V7.53337C27.4819 7.53337 32.4886 10.2267 37.8053 15.1334C35.5219 17.5334 33.2386 20.2534 31.0686 23.27C27.5747 23.628 24.1098 24.2272 20.6986 25.0634C20.3381 23.5027 20.0544 21.9252 19.8486 20.3367C19.0819 14.1034 20.0286 9.26337 22.2319 7.97671C22.7186 7.68337 23.3553 7.55004 24.1053 7.55004V3.91671C22.7386 3.91671 21.4953 4.21004 20.4219 4.82671C15.8386 7.47004 14.8119 15.7034 17.1753 26.0434C7.03192 29.1767 0.428589 34.18 0.428589 39.4634C0.428589 44.7634 7.06526 49.7867 17.2419 52.8967C14.8919 63.27 15.9353 71.5234 20.5353 74.1634C21.5953 74.7834 22.8353 75.0767 24.2019 75.0767C28.6886 75.0767 34.5586 71.88 40.4953 66.3367C46.4286 71.8467 52.2986 75.01 56.7853 75.01C58.0723 75.0372 59.3434 74.722 60.4686 74.0967C65.0519 71.4567 66.0786 63.2234 63.7153 52.8834C73.8253 49.77 80.4286 44.7467 80.4286 39.4634ZM59.1953 28.5867C58.5619 30.7662 57.8277 32.9152 56.9953 35.0267C55.6325 32.3759 54.1361 29.7959 52.5119 27.2967C54.8286 27.64 57.0619 28.0634 59.1986 28.5867H59.1953ZM51.7286 45.9534C50.5077 48.0849 49.1965 50.1635 47.7986 52.1834C42.9061 52.6146 37.9854 52.6202 33.0919 52.2C30.2851 48.1906 27.8304 43.9459 25.7553 39.5134C27.8272 35.0704 30.2715 30.8107 33.0619 26.78C37.9532 26.3479 42.8728 26.3412 47.7653 26.76C49.1186 28.7 50.4419 30.7734 51.7119 32.96C52.9519 35.0934 54.0786 37.26 55.1053 39.4467C54.0672 41.6599 52.9407 43.8305 51.7286 45.9534V45.9534ZM56.9953 43.8334C57.8753 46.0167 58.6286 48.2034 59.2453 50.3234C57.1119 50.8467 54.8586 51.2867 52.5286 51.6267C54.1461 49.1048 55.6368 46.5038 56.9953 43.8334V43.8334ZM40.4619 61.2334C38.9453 59.6667 37.4286 57.9234 35.9286 56.0134C37.3953 56.08 38.8953 56.13 40.4119 56.13C41.9453 56.13 43.4619 56.0967 44.9453 56.0134C43.4786 57.9234 41.9619 59.6667 40.4619 61.2334ZM28.3286 51.6267C26.0811 51.3011 23.8498 50.8717 21.6419 50.34C22.2453 48.2367 22.9953 46.0667 23.8419 43.9C24.5119 45.2 25.2153 46.5067 25.9819 47.8134C26.7486 49.1167 27.5286 50.39 28.3286 51.6267ZM40.3786 17.6934C41.8953 19.26 43.4119 21.0034 44.9119 22.9134C43.4453 22.8467 41.9453 22.7967 40.4286 22.7967C38.8953 22.7967 37.3786 22.83 35.8953 22.9134C37.3619 21.0034 38.8786 19.26 40.3786 17.6934ZM28.3119 27.3C26.6948 29.8165 25.2041 32.4119 23.8453 35.0767C22.9893 32.9516 22.2384 30.7856 21.5953 28.5867C23.7286 28.08 25.9819 27.64 28.3119 27.3ZM13.5553 47.7134C7.78192 45.2534 4.04859 42.0234 4.04859 39.4634C4.04859 36.9034 7.78192 33.6567 13.5553 31.2134C14.9553 30.61 16.4886 30.07 18.0719 29.5667C19.0019 32.76 20.2253 36.0867 21.7386 39.4967C20.3098 42.704 19.1014 46.005 18.1219 49.3767C16.5734 48.8972 15.0494 48.3421 13.5553 47.7134V47.7134ZM22.3286 71.0134C20.1119 69.7467 19.1486 64.9 19.8986 58.6734C20.0786 57.14 20.3719 55.5234 20.7319 53.8767C23.9253 54.66 27.4153 55.2634 31.0853 55.6567C33.1625 58.5223 35.4287 61.2462 37.8686 63.81C32.5519 68.75 27.5619 71.4567 24.1686 71.4567C23.5284 71.4637 22.8964 71.3126 22.3286 71.0167V71.0134ZM61.0086 58.59C61.7753 64.82 60.8286 69.6634 58.6253 70.95C58.1386 71.2434 57.5019 71.3734 56.7519 71.3734C53.3753 71.3734 48.3686 68.6834 43.0519 63.7734C45.4817 61.2203 47.7326 58.5027 49.7886 55.64C53.2825 55.2821 56.7474 54.6829 60.1586 53.8467C60.5353 55.4934 60.8253 57.0734 61.0086 58.59V58.59ZM67.2853 47.7134C65.8853 48.3167 64.3519 48.8567 62.7686 49.36C61.7718 45.9711 60.5468 42.6535 59.1019 39.43C60.6019 36.04 61.8053 32.73 62.7186 29.55C64.272 30.0311 65.8015 30.5862 67.3019 31.2134C73.0753 33.6734 76.8086 36.9034 76.8086 39.4634C76.7919 42.0234 73.0586 45.27 67.2853 47.7134V47.7134Z" fill="#959595"/>
<path d="M40.4119 46.9167C42.3887 46.9167 44.2845 46.1314 45.6822 44.7336C47.08 43.3359 47.8653 41.4401 47.8653 39.4633C47.8653 37.4866 47.08 35.5908 45.6822 34.193C44.2845 32.7953 42.3887 32.01 40.4119 32.01C38.4352 32.01 36.5394 32.7953 35.1416 34.193C33.7438 35.5908 32.9586 37.4866 32.9586 39.4633C32.9586 41.4401 33.7438 43.3359 35.1416 44.7336C36.5394 46.1314 38.4352 46.9167 40.4119 46.9167V46.9167Z" fill="#959595"/>
</g>
<defs>
<clipPath id="clip0_301_22">
<rect width="80" height="80" fill="white" transform="translate(0.428589 0.5)"/>
</clipPath>
</defs>
</svg>
