<svg width="80" height="61" viewBox="0 0 80 61" fill="none" xmlns="http://www.w3.org/2000/svg">
<g clip-path="url(#clip0_301_31)">
<path d="M68.8378 35.0356C66.0546 35.0499 63.6356 35.7203 61.6103 36.7112C60.8668 35.2393 60.1237 33.9281 59.9928 32.9662C59.8468 31.8443 59.6721 31.1593 59.8468 29.8187C60.0218 28.4781 60.8087 26.569 60.794 26.4234C60.7796 26.2778 60.619 25.5928 59.0162 25.5784C57.4134 25.5637 56.029 25.8843 55.8687 26.3068C55.7084 26.7293 55.4025 27.6912 55.1984 28.6818C54.9215 30.1393 51.9928 35.3412 50.3171 38.0662C49.7778 37.0028 49.3115 36.0699 49.2093 35.3268C49.0637 34.2049 48.8887 33.5199 49.0637 32.1793C49.2387 30.8387 50.0256 28.9299 50.0109 28.784C49.9962 28.6384 49.8359 27.9534 48.2331 27.939C46.63 27.9243 45.2456 28.2449 45.0856 28.6674C44.9253 29.0903 44.7503 30.0809 44.4153 31.0428C44.08 32.0046 40.1893 40.6896 39.1693 42.9334C38.7571 43.8415 38.3247 44.7404 37.8725 45.6293C37.8725 45.6293 37.8578 45.6731 37.814 45.7459C37.6719 46.0246 37.5263 46.3015 37.3771 46.5765V46.5909C37.1584 46.9846 36.9253 47.3487 36.8087 47.3487C36.7212 47.3487 36.5609 46.2996 36.8378 44.8715C37.4206 41.8553 38.805 37.1631 38.7906 37.0028C38.7906 36.9153 39.0528 36.0993 37.8871 35.6765C36.7503 35.254 36.3425 35.9534 36.2403 35.9534C36.1384 35.9534 36.0653 36.2012 36.0653 36.2012C36.0653 36.2012 37.3334 30.9262 33.6465 30.9262C31.3443 30.9262 28.1675 33.4471 26.5937 35.7203C24.8047 36.6938 23.0172 37.6702 21.2312 38.6493C20.3718 39.1303 19.4828 39.6112 18.6521 40.0628C18.5937 40.0046 18.5356 39.9315 18.4771 39.8734C14.0181 35.1084 5.77058 31.7421 6.12027 25.3453C6.25152 23.0137 7.05277 16.8934 21.96 9.46181C34.2293 3.41432 43.9928 5.08994 45.6831 8.80588C48.1018 14.1103 40.4518 23.9609 27.774 25.3887C22.9362 25.9281 20.4006 24.0628 19.7596 23.3634C19.0893 22.6346 18.9871 22.5909 18.7393 22.7368C18.3315 22.9556 18.5937 23.6112 18.7393 23.9899C19.1184 24.9806 20.6775 26.7293 23.315 27.5893C25.6465 28.3468 31.315 28.7696 38.1784 26.1174C45.8578 23.1446 51.8615 14.8824 50.0984 7.96088C48.335 0.937128 36.6775 -1.37975 25.6465 2.53994C19.0893 4.87182 11.9781 8.54369 6.8634 13.3234C0.786834 19.0062 -0.175041 23.9462 0.218397 26.0156C1.63215 33.3596 11.7596 38.1393 15.8106 41.6802C15.6065 41.7968 15.4168 41.899 15.2568 41.9865C13.2312 42.9918 5.50808 47.0281 3.58465 51.2977C1.39902 56.1356 3.93465 59.604 5.61027 60.0699C10.8125 61.5127 16.1603 58.919 19.0309 54.6346C21.9015 50.3506 21.5518 44.784 20.2259 42.234C20.2112 42.2049 20.1968 42.1756 20.1675 42.1465C20.6921 41.8406 21.2312 41.5199 21.7559 41.214C22.7202 40.6439 23.6968 40.0948 24.685 39.5671C24.1893 40.9224 23.825 42.5399 23.6503 44.8715C23.4315 47.6112 24.5534 51.1665 26.0253 52.5652C26.6812 53.1777 27.4534 53.1921 27.949 53.1921C29.6684 53.1921 30.4409 51.764 31.3006 50.0737C32.3496 48.0046 33.2968 45.6003 33.2968 45.6003C33.2968 45.6003 32.1165 52.0993 35.3225 52.0993C36.4881 52.0993 37.6684 50.5837 38.1931 49.8115V49.8259C38.1931 49.8259 38.2221 49.7821 38.2806 49.6803C38.3971 49.4909 38.47 49.374 38.47 49.374V49.3452C38.9362 48.529 39.9856 46.6784 41.5446 43.6037C43.5556 39.6403 45.4937 34.6859 45.4937 34.6859C45.4937 34.6859 45.6687 35.8953 46.2659 37.9062C46.6159 39.0865 47.344 40.3834 47.9271 41.6365C47.4609 42.2924 47.1693 42.6565 47.1693 42.6565L47.184 42.6712C46.805 43.1665 46.3971 43.7056 45.9453 44.2306C44.3568 46.1246 42.4628 48.2962 42.2003 48.9224C41.894 49.6656 41.9671 50.2049 42.5503 50.6421C42.9728 50.9628 43.7303 51.0062 44.5028 50.9628C45.9309 50.8606 46.9362 50.5109 47.4315 50.2924C48.204 50.0156 49.1075 49.5928 49.9525 48.9662C51.5118 47.8149 52.4587 46.1684 52.3715 43.9974C52.3278 42.8024 51.9343 41.6074 51.4534 40.4853C51.5993 40.2815 51.7303 40.0774 51.8762 39.8734C54.3387 36.274 56.2478 32.3249 56.2478 32.3249C56.2478 32.3249 56.4228 33.5343 57.02 35.5456C57.3115 36.5656 57.909 37.6731 58.4334 38.7512C56.1165 40.6312 54.6884 42.8168 54.1784 44.2449C53.2606 46.8971 53.9743 48.0918 55.3296 48.3687C55.9415 48.4999 56.8159 48.2084 57.4571 47.9315C58.2731 47.6693 59.235 47.2178 60.1531 46.5471C61.7125 45.3962 63.2131 43.7931 63.1256 41.6221C63.0818 40.6312 62.8196 39.6546 62.4553 38.7074C64.4225 37.8918 66.9581 37.4399 70.1928 37.8187C77.1293 38.6346 78.499 42.9624 78.2365 44.7843C77.9743 46.6056 76.5171 47.5965 76.0365 47.9024C75.5553 48.2087 75.3953 48.3106 75.439 48.529C75.4971 48.8496 75.7303 48.8352 76.1384 48.7768C76.7068 48.6749 79.7815 47.3049 79.9125 43.9534C80.1312 39.6693 76.0509 34.9918 68.8378 35.0356V35.0356ZM15.3296 53.0756C13.0271 55.5818 9.82152 56.529 8.43715 55.7278C6.9509 54.8678 7.53371 51.1665 10.3606 48.5146C12.08 46.8971 14.295 45.3959 15.7668 44.4781C16.1018 44.274 16.5975 43.9828 17.195 43.6184C17.2968 43.5599 17.3553 43.5309 17.3553 43.5309L17.705 43.3121C18.7393 47.1009 17.7487 50.4381 15.3296 53.0756V53.0756ZM32.0875 41.6802C31.2859 43.6331 29.6103 48.6312 28.5903 48.3543C27.7159 48.1212 27.1765 44.3324 28.4153 40.5874C29.0418 38.7074 30.3678 36.4634 31.1403 35.5893C32.3934 34.1903 33.7778 33.7237 34.1128 34.2924C34.5356 35.0356 32.5828 40.4562 32.0875 41.6802V41.6802ZM45.9162 48.2959C45.5809 48.4709 45.2606 48.5874 45.1146 48.4999C45.0128 48.4415 45.2606 48.2084 45.2606 48.2084C45.2606 48.2084 46.9946 46.3434 47.6793 45.4981C48.0731 45.0028 48.539 44.4199 49.0346 43.764V43.9534C49.0346 46.1831 46.8778 47.684 45.9159 48.2959H45.9162ZM56.5828 45.8624C56.335 45.6874 56.3787 45.1046 57.2093 43.2831C57.53 42.569 58.2875 41.3743 59.5846 40.2231C59.7303 40.6893 59.8325 41.1412 59.8178 41.5637C59.8031 44.3762 57.7925 45.4253 56.5828 45.8624Z" fill="#959595"/>
</g>
<defs>
<clipPath id="clip0_301_31">
<rect width="80" height="60" fill="white" transform="translate(-6.10352e-05 0.5)"/>
</clipPath>
</defs>
</svg>
