<svg width="39" height="40" viewBox="0 0 39 40" fill="none" xmlns="http://www.w3.org/2000/svg">
<g clip-path="url(#clip0_301_41)">
<path fill-rule="evenodd" clip-rule="evenodd" d="M19.5 0.5C8.72625 0.5 0 9.22625 0 20C0 28.6288 5.58187 35.9169 13.3331 38.5006C14.3081 38.6713 14.6737 38.0863 14.6737 37.5744C14.6737 37.1113 14.6494 35.5756 14.6494 33.9425C9.75 34.8444 8.4825 32.7481 8.0925 31.6513C7.87313 31.0906 6.9225 29.36 6.09375 28.8969C5.41125 28.5313 4.43625 27.6294 6.06937 27.605C7.605 27.5806 8.70187 29.0188 9.0675 29.6038C10.8225 32.5531 13.6256 31.7244 14.7469 31.2125C14.9175 29.945 15.4294 29.0919 15.99 28.6044C11.6513 28.1169 7.1175 26.435 7.1175 18.9763C7.1175 16.8556 7.87313 15.1006 9.11625 13.7356C8.92125 13.2481 8.23875 11.2494 9.31125 8.56813C9.31125 8.56813 10.9444 8.05625 14.6737 10.5669C16.2337 10.1281 17.8912 9.90875 19.5487 9.90875C21.2062 9.90875 22.8637 10.1281 24.4237 10.5669C28.1531 8.03188 29.7862 8.56813 29.7862 8.56813C30.8587 11.2494 30.1763 13.2481 29.9813 13.7356C31.2244 15.1006 31.98 16.8313 31.98 18.9763C31.98 26.4594 27.4219 28.1169 23.0831 28.6044C23.79 29.2138 24.3994 30.3838 24.3994 32.2119C24.3994 34.82 24.375 36.9163 24.375 37.5744C24.375 38.0863 24.7406 38.6956 25.7156 38.5006C29.5867 37.1937 32.9504 34.7057 35.3335 31.387C37.7165 28.0682 38.9988 24.0857 39 20C39 9.22625 30.2738 0.5 19.5 0.5Z" fill="white"/>
</g>
<defs>
<clipPath id="clip0_301_41">
<rect width="39" height="39" fill="white" transform="translate(0 0.5)"/>
</clipPath>
</defs>
</svg>
